HIERARCHY
ROOT Hips
{
	OFFSET -0.001795 -0.223333 0.028219
	CHANNELS 6 Xposition Yposition Zposition Zrotation Yrotation Xrotation 
	JOINT LeftUpLeg
	{
		OFFSET 0.069520 -0.091406 -0.006815
		CHANNELS 3 Zrotation Yrotation Xrotation
		JOINT LeftLeg
		{
			OFFSET 0.034277 -0.375199 -0.004496
			CHANNELS 3 Zrotation Yrotation Xrotation
			JOINT LeftFoot
			{
				OFFSET -0.013596 -0.397961 -0.043693
				CHANNELS 3 Zrotation Yrotation Xrotation
				JOINT LeftToe
				{
					OFFSET 0.026358 -0.055791 0.119288
					CHANNELS 3 Zrotation Yrotation Xrotation
					End Site
					{
						OFFSET 0.000000 0.000000 0.000000
					}
				}
			}
		}
	}
	JOINT RightUpLeg
	{
		OFFSET -0.067670 -0.090522 -0.004320
		CHANNELS 3 Zrotation Yrotation Xrotation
		JOINT RightLeg
		{
			OFFSET -0.038290 -0.382569 -0.008850
			CHANNELS 3 Zrotation Yrotation Xrotation
			JOINT RightFoot
			{
				OFFSET 0.015774 -0.398415 -0.042312
				CHANNELS 3 Zrotation Yrotation Xrotation
				JOINT RightToe
				{
					OFFSET -0.025372 -0.048144 0.123348
					CHANNELS 3 Zrotation Yrotation Xrotation
					End Site
					{
						OFFSET 0.000000 0.000000 0.000000
					}
				}
			}
		}
	}
	JOINT Spine
	{
		OFFSET -0.002533 0.108963 -0.026696
		CHANNELS 3 Zrotation Yrotation Xrotation
		JOINT Spine1
		{
			OFFSET 0.005487 0.135180 0.001092
			CHANNELS 3 Zrotation Yrotation Xrotation
			JOINT Spine2
			{
				OFFSET 0.001457 0.052922 0.025425
				CHANNELS 3 Zrotation Yrotation Xrotation
				JOINT Neck
				{
					OFFSET -0.002778 0.213870 -0.042857
					CHANNELS 3 Zrotation Yrotation Xrotation
					JOINT Head
					{
						OFFSET 0.005152 0.064970 0.051349
						CHANNELS 3 Zrotation Yrotation Xrotation
						End Site
						{
							OFFSET 0.000000 0.000000 0.000000
						}
					}
				}
				JOINT LeftShoulder
				{
					OFFSET 0.078845 0.121749 -0.034090
					CHANNELS 3 Zrotation Yrotation Xrotation
					JOINT LeftArm
					{
						OFFSET 0.090977 0.030469 -0.008868
						CHANNELS 3 Zrotation Yrotation Xrotation
						JOINT LeftForeArm
						{
							OFFSET 0.259612 -0.012772 -0.027456
							CHANNELS 3 Zrotation Yrotation Xrotation
							JOINT LeftHand
							{
								OFFSET 0.249234 0.008986 -0.001171
								CHANNELS 3 Zrotation Yrotation Xrotation
								End Site
								{
									OFFSET 0.000000 0.000000 0.000000
								}
							}
						}
					}
				}
				JOINT RightShoulder
				{
					OFFSET -0.081759 0.118833 -0.038615
					CHANNELS 3 Zrotation Yrotation Xrotation
					JOINT RightArm
					{
						OFFSET -0.096012 0.032551 -0.009143
						CHANNELS 3 Zrotation Yrotation Xrotation
						JOINT RightForeArm
						{
							OFFSET -0.253742 -0.013329 -0.021401
							CHANNELS 3 Zrotation Yrotation Xrotation
							JOINT RightHand
							{
								OFFSET -0.255298 0.007772 -0.005559
								CHANNELS 3 Zrotation Yrotation Xrotation
								End Site
								{
									OFFSET 0.000000 0.000000 0.000000
								}
							}
						}
					}
				}
			}
		}
	}
}
MOTION
Frames: 5
Frame Time: 0.050000
0.000000 0.910363 0.000000 -0.703842 8.290945 -5.725108 -6.128018 1.029978 7.547909 2.805039 -1.556678 16.297195 4.162248 6.538014 -4.511178 0.000000 0.000000 0.000000 -1.746470 1.694525 -25.669309 5.326804 -5.838242 71.963506 -6.418528 -16.963597 18.620452 0.000000 0.000000 0.000000 2.779702 -1.039016 14.324848 3.803664 -3.764420 15.025767 -2.874831 -6.239598 -11.799847 0.472746 -0.364955 1.669096 0.000000 0.000000 0.000000 -26.110333 -13.799882 5.894537 -24.995709 -10.019309 -0.401179 -117.539927 -69.293199 102.181463 0.000000 0.000000 0.000000 17.540398 3.491486 -0.913605 26.148511 -33.462664 -7.646197 81.208895 32.498998 27.541117 0.000000 0.000000 0.000000 
0.000365 0.937797 0.005621 -1.967380 9.319799 -3.683632 -2.825805 1.413934 14.928087 4.007132 -1.210631 9.790372 0.058319 -5.395716 -7.937135 0.000000 0.000000 0.000000 0.407403 2.329674 -29.384445 5.271848 -4.634405 58.208506 -8.547261 -19.996604 13.853853 0.000000 0.000000 0.000000 3.934114 -0.922330 11.173791 5.045794 -4.648616 14.761068 -1.828333 -10.719926 -11.170799 -1.520771 1.339581 -1.732478 0.000000 0.000000 0.000000 -20.600251 -12.961276 6.463674 -27.916622 -16.911494 0.635283 -130.582845 -75.239736 125.114681 0.000000 0.000000 0.000000 10.666192 1.618074 -1.441786 23.809479 -36.031778 -7.540053 81.027510 25.027982 19.385333 0.000000 0.000000 0.000000 
-0.000193 0.970275 0.013972 -2.531040 8.753241 -1.341360 -1.104275 1.376686 17.921634 4.956508 -1.135933 7.304408 -3.077119 -6.514748 -0.031058 0.000000 0.000000 0.000000 1.849685 2.766741 -29.735066 4.696968 -1.981678 35.430109 -9.931041 -21.279700 22.938400 0.000000 0.000000 0.000000 4.131069 -0.828501 9.660158 7.020340 -4.839352 8.864931 -3.111562 -13.313848 -7.070068 -3.011097 2.443267 -0.163484 0.000000 0.000000 0.000000 -19.163926 -12.835646 7.027781 -27.185548 -15.458462 -0.144337 -135.383586 -73.668441 130.941486 0.000000 0.000000 0.000000 8.085715 -0.847759 -2.062991 21.516986 -35.414719 -6.864190 78.212183 23.563578 16.422415 0.000000 0.000000 0.000000 
-0.000604 0.996549 0.023800 -1.856250 8.322884 1.414216 -0.332842 1.241228 17.299250 4.438368 -1.676043 13.850243 -3.754562 -2.547378 8.202057 0.000000 0.000000 0.000000 3.268703 2.995572 -28.001401 1.620448 -0.083657 16.742569 -7.767012 -17.976974 27.028315 0.000000 0.000000 0.000000 3.510056 -0.529141 6.463783 8.004098 -5.642782 10.350945 -2.067270 -13.746002 -9.685612 -4.813293 4.035655 3.522104 0.000000 0.000000 0.000000 -19.164995 -12.328058 6.953931 -28.895592 -11.793199 -0.789444 -119.344765 -71.349655 109.953742 0.000000 0.000000 0.000000 4.623518 -0.704831 -1.291378 23.676159 -34.382770 -7.545707 79.477023 24.167376 16.793780 0.000000 0.000000 0.000000 
-0.000705 0.997554 0.034414 -0.688157 7.548493 2.801174 -0.129456 1.124381 15.164642 1.739117 -2.337366 28.210000 -1.155261 4.750924 15.361925 0.000000 0.000000 0.000000 4.302183 2.972762 -25.053673 1.176153 0.057951 13.022162 -7.205390 -17.355894 27.700187 0.000000 0.000000 0.000000 2.545564 -0.374827 5.163539 7.684932 -5.251468 9.628780 -1.884476 -13.373499 -10.233874 -5.625678 4.938451 6.828667 0.000000 0.000000 0.000000 -18.058289 -9.852688 5.390964 -29.610442 -6.637364 -1.832874 -95.872696 -65.707848 78.507375 0.000000 0.000000 0.000000 4.231463 -0.769387 -1.224982 26.135083 -32.586626 -8.053099 78.988352 28.393151 20.182597 0.000000 0.000000 0.000000 
